<mxfile host="app.diagrams.net" modified="2023-12-22T15:06:08.643Z" agent="Mozilla/5.0 (Windows NT 10.0; Win64; x64) AppleWebKit/537.36 (KHTML, like Gecko) Chrome/120.0.0.0 Safari/537.36" version="22.1.11" etag="x8sV0MzeJbc78O8uNJRX" type="github">
  <diagram name="Page-1" id="OgcpdX1ptCySPaRAVtGJ">
    <mxGraphModel>
      <root>
        <mxCell id="0" />
        <mxCell id="1" parent="0" />
      </root>
    </mxGraphModel>
  </diagram>
</mxfile>
